<svg width="482" height="235" viewBox="0 0 482 235" fill="none" xmlns="http://www.w3.org/2000/svg">
<mask id="path-1-outside-1_1_10" maskUnits="userSpaceOnUse" x="-0.995239" y="-0.995239" width="444" height="236" fill="black">
<rect fill="white" x="-0.995239" y="-0.995239" width="444" height="236"/>
<path d="M103.613 34.8329C106.472 24.1639 117.438 17.8327 128.107 20.6913C132.26 21.804 135.755 24.1451 138.307 27.2186L290.932 68.1151L284.876 45.5087C282.017 34.8393 288.349 23.8714 299.018 21.0126C309.687 18.1543 320.654 24.4863 323.513 35.1552L335.547 80.0702L407.174 99.2626C417.843 102.122 424.174 113.088 421.315 123.757C418.456 134.426 407.489 140.758 396.82 137.899L347.501 124.683L364.924 189.704C367.782 200.373 361.451 211.339 350.782 214.198C340.113 217.057 329.146 210.726 326.287 200.057L302.888 112.729L136.124 68.0448L133.476 77.9247L285.242 118.591C295.911 121.45 302.243 132.417 299.385 143.086C296.526 153.755 285.559 160.086 274.89 157.227L123.124 116.562L119.694 129.362C123.154 128.306 126.942 128.174 130.694 129.18L285.242 170.591C295.911 173.45 302.243 184.417 299.385 195.086C296.526 205.755 285.559 212.086 274.89 209.227L120.342 167.817C116.59 166.812 113.375 164.802 110.907 162.157L100.839 199.734C98.4535 208.636 90.4241 214.516 81.6327 214.56H81.3075C72.5165 214.516 64.4876 208.636 62.1024 199.734L20.6913 45.1854C17.8328 34.5163 24.1647 23.5501 34.8339 20.6913C45.503 17.8327 56.4701 24.1637 59.329 34.8329L81.4706 117.469L103.613 34.8329Z"/>
</mask>
<path d="M103.613 34.8329C106.472 24.1639 117.438 17.8327 128.107 20.6913C132.26 21.804 135.755 24.1451 138.307 27.2186L290.932 68.1151L284.876 45.5087C282.017 34.8393 288.349 23.8714 299.018 21.0126C309.687 18.1543 320.654 24.4863 323.513 35.1552L335.547 80.0702L407.174 99.2626C417.843 102.122 424.174 113.088 421.315 123.757C418.456 134.426 407.489 140.758 396.82 137.899L347.501 124.683L364.924 189.704C367.782 200.373 361.451 211.339 350.782 214.198C340.113 217.057 329.146 210.726 326.287 200.057L302.888 112.729L136.124 68.0448L133.476 77.9247L285.242 118.591C295.911 121.45 302.243 132.417 299.385 143.086C296.526 153.755 285.559 160.086 274.89 157.227L123.124 116.562L119.694 129.362C123.154 128.306 126.942 128.174 130.694 129.18L285.242 170.591C295.911 173.45 302.243 184.417 299.385 195.086C296.526 205.755 285.559 212.086 274.89 209.227L120.342 167.817C116.59 166.812 113.375 164.802 110.907 162.157L100.839 199.734C98.4535 208.636 90.4241 214.516 81.6327 214.56H81.3075C72.5165 214.516 64.4876 208.636 62.1024 199.734L20.6913 45.1854C17.8328 34.5163 24.1647 23.5501 34.8339 20.6913C45.503 17.8327 56.4701 24.1637 59.329 34.8329L81.4706 117.469L103.613 34.8329Z" fill="#6CFF9B"/>
<path d="M103.613 34.8329L84.2947 29.6561L84.2947 29.6564L103.613 34.8329ZM128.107 20.6913L133.284 1.37283L133.283 1.37269L128.107 20.6913ZM138.307 27.2186L122.921 39.9959L126.986 44.8904L133.131 46.5371L138.307 27.2186ZM290.932 68.1151L285.756 87.4336L319.216 96.3992L310.251 62.9393L290.932 68.1151ZM284.876 45.5087L304.195 40.3329L304.194 40.3323L284.876 45.5087ZM299.018 21.0126L293.843 1.69386L293.842 1.69405L299.018 21.0126ZM323.513 35.1552L342.831 29.9791L342.831 29.9783L323.513 35.1552ZM335.547 80.0702L316.228 85.2463L319.217 96.4001L330.37 99.3887L335.547 80.0702ZM407.174 99.2626L412.351 79.9442L412.35 79.9441L407.174 99.2626ZM421.315 123.757L440.634 128.933L440.634 128.933L421.315 123.757ZM396.82 137.899L391.644 157.218L391.644 157.218L396.82 137.899ZM347.501 124.683L352.678 105.365L319.216 96.3986L328.182 129.86L347.501 124.683ZM364.924 189.704L384.242 184.528L384.242 184.527L364.924 189.704ZM350.782 214.198L355.958 233.517L355.959 233.517L350.782 214.198ZM326.287 200.057L306.968 205.233L306.969 205.233L326.287 200.057ZM302.888 112.729L322.206 107.553L319.217 96.3995L308.064 93.4109L302.888 112.729ZM136.124 68.0448L141.3 48.7263L121.982 43.5499L116.805 62.8681L136.124 68.0448ZM133.476 77.9247L114.158 72.748L108.981 92.0667L128.3 97.2432L133.476 77.9247ZM285.242 118.591L280.066 137.909L280.066 137.909L285.242 118.591ZM299.385 143.086L318.703 148.262L318.703 148.262L299.385 143.086ZM274.89 157.227L280.066 137.909L280.066 137.909L274.89 157.227ZM123.124 116.562L128.3 97.2438L108.982 92.0675L103.805 111.386L123.124 116.562ZM119.694 129.362L100.376 124.186L91.0408 159.024L125.536 148.49L119.694 129.362ZM130.694 129.18L135.871 109.861L135.871 109.861L130.694 129.18ZM285.242 170.591L290.418 151.272L290.418 151.272L285.242 170.591ZM299.385 195.086L318.703 200.262L318.703 200.262L299.385 195.086ZM274.89 209.227L280.066 189.909L280.066 189.909L274.89 209.227ZM120.342 167.817L115.165 187.136L115.165 187.136L120.342 167.817ZM110.907 162.157L125.53 148.513L100.924 122.141L91.5885 156.981L110.907 162.157ZM100.839 199.734L120.157 204.911L120.157 204.91L100.839 199.734ZM81.6327 214.56V234.56H81.6831L81.7336 234.56L81.6327 214.56ZM81.3075 214.56L81.2056 234.56L81.2566 234.56H81.3075V214.56ZM62.1024 199.734L42.7839 204.911L42.784 204.911L62.1024 199.734ZM20.6913 45.1854L1.37264 50.3613L1.37276 50.3618L20.6913 45.1854ZM34.8339 20.6913L29.6578 1.37268L29.6575 1.37277L34.8339 20.6913ZM59.329 34.8329L78.6475 29.6566L78.6475 29.6564L59.329 34.8329ZM81.4706 117.469L62.152 122.645L81.4702 194.743L100.789 122.645L81.4706 117.469ZM103.613 34.8329L122.932 40.0096C122.935 39.9958 122.938 39.9884 122.939 39.9865C122.939 39.9845 122.939 39.9857 122.937 39.9892C122.936 39.9927 122.933 39.9969 122.93 40.0016C122.927 40.0061 122.925 40.0101 122.922 40.0134C122.917 40.02 122.914 40.0218 122.916 40.0201C122.919 40.0181 122.924 40.0141 122.931 40.0098C122.939 40.0055 122.945 40.003 122.948 40.002C122.95 40.0011 122.947 40.0024 122.939 40.0035C122.935 40.0041 122.93 40.0046 122.925 40.0048C122.919 40.005 122.914 40.0049 122.911 40.0047C122.907 40.0044 122.905 40.0042 122.908 40.0045C122.91 40.0048 122.917 40.0062 122.931 40.0099L128.107 20.6913L133.283 1.37269C111.945 -4.3445 90.0127 8.31808 84.2947 29.6561L103.613 34.8329ZM128.107 20.6913L122.931 40.0097C122.942 40.0126 122.948 40.0149 122.951 40.016C122.955 40.0171 122.955 40.0175 122.954 40.0169C122.953 40.0163 122.95 40.0152 122.947 40.0134C122.944 40.0116 122.94 40.0096 122.937 40.0073C122.93 40.0027 122.924 39.9986 122.922 39.996C122.919 39.9937 122.919 39.9934 122.921 39.9959L138.307 27.2186L153.694 14.4413C148.585 8.28878 141.565 3.5918 133.284 1.37283L128.107 20.6913ZM138.307 27.2186L133.131 46.5371L285.756 87.4336L290.932 68.1151L296.109 48.7966L143.484 7.90013L138.307 27.2186ZM290.932 68.1151L310.251 62.9393L304.195 40.3329L284.876 45.5087L265.557 50.6845L271.614 73.2909L290.932 68.1151ZM284.876 45.5087L304.194 40.3323C304.191 40.3185 304.189 40.3108 304.189 40.3088C304.189 40.3067 304.189 40.308 304.189 40.3119C304.189 40.3158 304.19 40.3206 304.189 40.3261C304.189 40.3314 304.189 40.3363 304.188 40.3403C304.187 40.3485 304.186 40.3511 304.187 40.3485C304.188 40.3454 304.19 40.3392 304.195 40.3315C304.199 40.3238 304.203 40.3185 304.205 40.3161C304.207 40.314 304.205 40.3164 304.199 40.3215C304.196 40.324 304.192 40.3268 304.187 40.3297C304.183 40.3326 304.178 40.335 304.175 40.3368C304.171 40.3385 304.17 40.3389 304.172 40.3382C304.174 40.3375 304.181 40.3348 304.195 40.3311L299.018 21.0126L293.842 1.69405C272.503 7.41182 259.84 29.3468 265.557 50.685L284.876 45.5087ZM299.018 21.0126L304.194 40.3313C304.208 40.3276 304.216 40.3263 304.218 40.3259C304.22 40.3256 304.218 40.3259 304.214 40.3261C304.21 40.3264 304.206 40.3265 304.2 40.3262C304.195 40.326 304.19 40.3256 304.186 40.325C304.177 40.3238 304.175 40.3226 304.177 40.3235C304.18 40.3245 304.186 40.327 304.194 40.3314C304.201 40.3357 304.206 40.3398 304.209 40.3419C304.211 40.3437 304.209 40.342 304.204 40.3355C304.201 40.3322 304.198 40.3283 304.195 40.3237C304.192 40.3192 304.19 40.3149 304.188 40.3115C304.187 40.308 304.186 40.3068 304.187 40.3088C304.188 40.3108 304.19 40.3181 304.194 40.332L323.513 35.1552L342.831 29.9783C337.113 8.64168 315.182 -4.02302 293.843 1.69386L299.018 21.0126ZM323.513 35.1552L304.194 40.3312L316.228 85.2463L335.547 80.0702L354.865 74.8941L342.831 29.9791L323.513 35.1552ZM335.547 80.0702L330.37 99.3887L401.997 118.581L407.174 99.2626L412.35 79.9441L340.723 60.7517L335.547 80.0702ZM407.174 99.2626L401.997 118.581C402.011 118.585 402.018 118.587 402.02 118.588C402.022 118.589 402.021 118.589 402.017 118.587C402.014 118.585 402.01 118.583 402.005 118.58C402 118.577 401.996 118.574 401.993 118.571C401.987 118.566 401.985 118.564 401.987 118.566C401.989 118.568 401.993 118.573 401.997 118.581C402.001 118.588 402.004 118.594 402.005 118.597C402.005 118.6 402.004 118.597 402.003 118.589C402.003 118.584 402.002 118.58 402.002 118.574C402.002 118.569 402.002 118.564 402.002 118.56C402.002 118.556 402.002 118.555 402.002 118.557C402.002 118.559 402 118.567 401.997 118.581L421.315 123.757L440.634 128.933C446.351 107.595 433.688 85.6621 412.351 79.9442L407.174 99.2626ZM421.315 123.757L401.997 118.58C401.993 118.594 401.99 118.601 401.99 118.603C401.989 118.605 401.989 118.604 401.991 118.601C401.993 118.597 401.995 118.593 401.998 118.588C402.001 118.584 402.004 118.58 402.006 118.577C402.011 118.57 402.014 118.568 402.012 118.57C402.009 118.572 402.004 118.576 401.996 118.581C401.989 118.585 401.983 118.588 401.98 118.589C401.977 118.589 401.98 118.588 401.988 118.587C401.992 118.586 401.997 118.586 402.003 118.586C402.008 118.586 402.013 118.586 402.017 118.586C402.021 118.586 402.022 118.586 402.02 118.586C402.018 118.586 402.01 118.584 401.997 118.581L396.82 137.899L391.644 157.218C412.983 162.936 434.916 150.271 440.634 128.933L421.315 123.757ZM396.82 137.899L401.997 118.581L352.678 105.365L347.501 124.683L342.324 144.002L391.644 157.218L396.82 137.899ZM347.501 124.683L328.182 129.86L345.605 194.881L364.924 189.704L384.242 184.527L366.819 119.507L347.501 124.683ZM364.924 189.704L345.605 194.88C345.609 194.894 345.61 194.901 345.61 194.903C345.611 194.906 345.61 194.904 345.61 194.9C345.61 194.897 345.61 194.892 345.61 194.886C345.61 194.881 345.611 194.876 345.611 194.872C345.613 194.864 345.614 194.861 345.613 194.863C345.612 194.866 345.609 194.872 345.605 194.88C345.601 194.887 345.597 194.893 345.595 194.895C345.593 194.897 345.595 194.894 345.601 194.889C345.605 194.887 345.609 194.884 345.613 194.881C345.618 194.878 345.622 194.876 345.626 194.874C345.629 194.872 345.63 194.872 345.628 194.873C345.626 194.873 345.619 194.876 345.605 194.88L350.782 214.198L355.959 233.517C377.297 227.798 389.959 205.866 384.242 184.528L364.924 189.704ZM350.782 214.198L345.606 194.88C345.592 194.883 345.584 194.885 345.582 194.885C345.58 194.885 345.581 194.885 345.585 194.885C345.589 194.885 345.594 194.884 345.599 194.885C345.605 194.885 345.609 194.885 345.614 194.886C345.622 194.887 345.624 194.888 345.622 194.887C345.619 194.886 345.613 194.884 345.605 194.88C345.598 194.875 345.593 194.871 345.59 194.869C345.588 194.867 345.591 194.869 345.596 194.876C345.598 194.879 345.601 194.883 345.604 194.888C345.607 194.892 345.609 194.897 345.611 194.9C345.613 194.904 345.613 194.905 345.613 194.903C345.612 194.901 345.609 194.894 345.605 194.88L326.287 200.057L306.969 205.233C312.687 226.572 334.621 239.234 355.958 233.517L350.782 214.198ZM326.287 200.057L345.605 194.88L322.206 107.553L302.888 112.729L283.569 117.906L306.968 205.233L326.287 200.057ZM302.888 112.729L308.064 93.4109L141.3 48.7263L136.124 68.0448L130.947 87.3633L297.711 132.048L302.888 112.729ZM136.124 68.0448L116.805 62.8681L114.158 72.748L133.476 77.9247L152.795 83.1013L155.442 73.2215L136.124 68.0448ZM133.476 77.9247L128.3 97.2432L280.066 137.909L285.242 118.591L290.419 99.2722L138.653 58.6062L133.476 77.9247ZM285.242 118.591L280.066 137.909C280.08 137.913 280.087 137.916 280.089 137.916C280.091 137.917 280.09 137.917 280.086 137.915C280.083 137.913 280.078 137.911 280.074 137.908C280.069 137.905 280.065 137.902 280.062 137.9C280.055 137.895 280.054 137.892 280.056 137.894C280.058 137.897 280.062 137.902 280.066 137.91C280.07 137.917 280.073 137.923 280.074 137.926C280.075 137.929 280.074 137.926 280.072 137.918C280.072 137.914 280.071 137.909 280.071 137.903C280.071 137.898 280.071 137.893 280.071 137.889C280.072 137.885 280.072 137.884 280.071 137.886C280.071 137.888 280.07 137.896 280.066 137.909L299.385 143.086L318.703 148.262C324.421 126.923 311.757 104.99 290.418 99.2722L285.242 118.591ZM299.385 143.086L280.066 137.909C280.062 137.923 280.06 137.93 280.059 137.932C280.058 137.934 280.059 137.933 280.06 137.929C280.062 137.926 280.065 137.922 280.068 137.917C280.07 137.912 280.073 137.908 280.076 137.905C280.081 137.899 280.083 137.897 280.081 137.898C280.079 137.9 280.074 137.904 280.066 137.909C280.059 137.913 280.053 137.916 280.05 137.917C280.047 137.918 280.05 137.916 280.058 137.915C280.062 137.915 280.067 137.914 280.072 137.914C280.078 137.914 280.083 137.914 280.087 137.914C280.09 137.914 280.092 137.915 280.09 137.914C280.087 137.914 280.08 137.913 280.066 137.909L274.89 157.227L269.713 176.546C291.051 182.263 312.985 169.602 318.703 148.262L299.385 143.086ZM274.89 157.227L280.066 137.909L128.3 97.2438L123.124 116.562L117.948 135.881L269.713 176.546L274.89 157.227ZM123.124 116.562L103.805 111.386L100.376 124.186L119.694 129.362L139.013 134.539L142.442 121.739L123.124 116.562ZM119.694 129.362L125.536 148.49C125.536 148.49 125.534 148.491 125.529 148.491C125.524 148.492 125.517 148.493 125.509 148.493C125.501 148.493 125.495 148.493 125.494 148.493C125.493 148.493 125.494 148.493 125.498 148.493C125.501 148.494 125.508 148.495 125.518 148.498L130.694 129.18L135.871 109.861C128.396 107.858 120.79 108.116 113.853 110.234L119.694 129.362ZM130.694 129.18L125.518 148.498L280.066 189.909L285.242 170.591L290.418 151.272L135.871 109.861L130.694 129.18ZM285.242 170.591L280.066 189.909C280.08 189.913 280.087 189.916 280.089 189.916C280.091 189.917 280.09 189.917 280.086 189.915C280.083 189.913 280.078 189.911 280.074 189.908C280.069 189.905 280.065 189.902 280.062 189.9C280.055 189.895 280.054 189.892 280.056 189.894C280.058 189.897 280.062 189.902 280.066 189.91C280.07 189.917 280.073 189.923 280.074 189.926C280.075 189.929 280.074 189.926 280.072 189.918C280.072 189.914 280.071 189.909 280.071 189.903C280.071 189.898 280.071 189.893 280.071 189.889C280.072 189.885 280.072 189.884 280.071 189.886C280.071 189.888 280.07 189.896 280.066 189.909L299.385 195.086L318.703 200.262C324.421 178.923 311.757 156.99 290.418 151.272L285.242 170.591ZM299.385 195.086L280.066 189.909C280.062 189.923 280.06 189.93 280.059 189.932C280.058 189.934 280.059 189.933 280.06 189.929C280.062 189.926 280.065 189.922 280.068 189.917C280.07 189.912 280.073 189.908 280.076 189.905C280.081 189.898 280.083 189.897 280.081 189.898C280.079 189.9 280.074 189.904 280.066 189.909C280.059 189.913 280.053 189.916 280.05 189.917C280.047 189.918 280.05 189.916 280.058 189.915C280.062 189.915 280.067 189.914 280.072 189.914C280.078 189.914 280.083 189.914 280.087 189.914C280.09 189.914 280.092 189.915 280.09 189.914C280.087 189.914 280.08 189.913 280.066 189.909L274.89 209.227L269.713 228.546C291.051 234.263 312.985 221.601 318.703 200.262L299.385 195.086ZM274.89 209.227L280.066 189.909L125.518 148.499L120.342 167.817L115.165 187.136L269.713 228.546L274.89 209.227ZM120.342 167.817L125.518 148.499C125.509 148.496 125.503 148.494 125.5 148.493C125.497 148.492 125.497 148.492 125.498 148.492C125.5 148.494 125.506 148.496 125.513 148.5C125.519 148.504 125.525 148.508 125.528 148.511C125.531 148.514 125.532 148.515 125.53 148.513L110.907 162.157L96.2839 175.801C101.228 181.1 107.684 185.131 115.165 187.136L120.342 167.817ZM110.907 162.157L91.5885 156.981L81.5202 194.558L100.839 199.734L120.157 204.91L130.226 167.333L110.907 162.157ZM100.839 199.734L81.5203 194.558C81.5172 194.569 81.5148 194.576 81.5138 194.579C81.5128 194.582 81.5126 194.582 81.5134 194.58C81.5143 194.578 81.5158 194.575 81.518 194.571C81.5201 194.568 81.5225 194.564 81.525 194.56C81.5302 194.552 81.5344 194.548 81.5363 194.546C81.5381 194.544 81.5373 194.545 81.5336 194.548C81.5297 194.551 81.5244 194.554 81.5183 194.557C81.5122 194.561 81.5075 194.563 81.5051 194.563C81.5029 194.564 81.5042 194.563 81.5095 194.563C81.5151 194.562 81.523 194.561 81.5318 194.561L81.6327 214.56L81.7336 234.56C99.3045 234.472 115.378 222.745 120.157 204.911L100.839 199.734ZM81.6327 214.56V194.56H81.3075V214.56V234.56H81.6327V214.56ZM81.3075 214.56L81.4093 194.561C81.4182 194.561 81.4261 194.562 81.4317 194.563C81.4369 194.563 81.4383 194.564 81.4361 194.563C81.4337 194.563 81.429 194.561 81.4229 194.557C81.4167 194.554 81.4115 194.551 81.4076 194.548C81.4039 194.545 81.4031 194.544 81.4048 194.546C81.4068 194.548 81.411 194.552 81.4162 194.56C81.4187 194.564 81.4211 194.568 81.4232 194.571C81.4253 194.575 81.4268 194.578 81.4277 194.58C81.4286 194.582 81.4284 194.582 81.4274 194.579C81.4263 194.576 81.424 194.569 81.4209 194.558L62.1024 199.734L42.784 204.911C47.5626 222.744 63.6354 234.471 81.2056 234.56L81.3075 214.56ZM62.1024 199.734L81.4209 194.558L40.0098 40.0091L20.6913 45.1854L1.37276 50.3618L42.7839 204.911L62.1024 199.734ZM20.6913 45.1854L40.0099 40.0095C40.0062 39.9957 40.0049 39.988 40.0046 39.986C40.0042 39.9839 40.0045 39.9851 40.0048 39.9891C40.005 39.993 40.0051 39.9979 40.0049 40.0034C40.0046 40.0088 40.0042 40.0137 40.0036 40.0179C40.0024 40.0262 40.0012 40.029 40.0021 40.0265C40.0031 40.0236 40.0055 40.0175 40.0099 40.01C40.0142 40.0025 40.0182 39.9973 40.0203 39.9949C40.0221 39.9929 40.0203 39.9953 40.0138 40.0004C40.0105 40.003 40.0065 40.0058 40.002 40.0087C39.9974 40.0116 39.9931 40.0139 39.9897 40.0156C39.9862 40.0174 39.985 40.0177 39.9871 40.017C39.989 40.0162 39.9964 40.0135 40.0102 40.0098L34.8339 20.6913L29.6575 1.37277C8.31989 7.09016 -4.3446 29.0223 1.37264 50.3613L20.6913 45.1854ZM34.8339 20.6913L40.0099 40.0099C40.0238 40.0062 40.0315 40.0048 40.0336 40.0045C40.0357 40.0041 40.0346 40.0044 40.0307 40.0047C40.0269 40.0049 40.022 40.005 40.0166 40.0048C40.0113 40.0046 40.0064 40.0041 40.0024 40.0035C39.9942 40.0024 39.9916 40.0012 39.9941 40.0021C39.9972 40.0031 40.0033 40.0056 40.0108 40.01C40.0184 40.0144 40.0236 40.0184 40.0259 40.0204C40.0279 40.0221 40.0254 40.0203 40.0203 40.0137C40.0177 40.0104 40.0148 40.0064 40.0119 40.0018C40.009 39.9971 40.0066 39.9928 40.0048 39.9893C40.003 39.9857 40.0027 39.9845 40.0034 39.9864C40.0041 39.9883 40.0068 39.9956 40.0105 40.0094L59.329 34.8329L78.6475 29.6564C72.9294 8.31679 50.9949 -4.34418 29.6578 1.37268L34.8339 20.6913ZM59.329 34.8329L40.0104 40.0091L62.152 122.645L81.4706 117.469L100.789 112.292L78.6475 29.6566L59.329 34.8329ZM81.4706 117.469L100.789 122.645L122.932 40.0094L103.613 34.8329L84.2947 29.6564L62.1521 112.292L81.4706 117.469Z" fill="#001906" mask="url(#path-1-outside-1_1_10)"/>
<mask id="path-3-outside-2_1_10" maskUnits="userSpaceOnUse" x="402.004" y="155.005" width="80" height="80" fill="black">
<rect fill="white" x="402.004" y="155.005" width="80" height="80"/>
<path d="M442.004 175.005C453.05 175.005 462.004 183.959 462.004 195.005C462.004 206.05 453.05 215.004 442.004 215.005C430.958 215.005 422.004 206.05 422.004 195.005C422.004 183.959 430.958 175.005 442.004 175.005Z"/>
</mask>
<path d="M442.004 175.005C453.05 175.005 462.004 183.959 462.004 195.005C462.004 206.05 453.05 215.004 442.004 215.005C430.958 215.005 422.004 206.05 422.004 195.005C422.004 183.959 430.958 175.005 442.004 175.005Z" fill="#6CFF9B"/>
<path d="M442.004 175.005L442.004 155.005H442.004V175.005ZM462.004 195.005L482.004 195.005V195.005H462.004ZM442.004 215.005L442.004 235.005L442.004 235.005L442.004 215.005ZM422.004 195.005L402.004 195.005L402.004 195.005L422.004 195.005ZM442.004 175.005L442.004 195.005C442.018 195.005 442.026 195.005 442.028 195.006C442.03 195.006 442.029 195.006 442.025 195.005C442.021 195.004 442.016 195.003 442.011 195.001C442.006 195 442.002 194.998 441.998 194.996C441.99 194.993 441.988 194.991 441.99 194.993C441.993 194.995 441.998 194.999 442.004 195.005C442.01 195.011 442.014 195.016 442.016 195.019C442.017 195.021 442.016 195.019 442.012 195.011C442.011 195.007 442.009 195.003 442.007 194.997C442.006 194.992 442.005 194.987 442.004 194.984C442.003 194.98 442.003 194.978 442.003 194.981C442.003 194.983 442.004 194.99 442.004 195.005H462.004H482.004C482.004 172.913 464.095 155.005 442.004 155.005L442.004 175.005ZM462.004 195.005L442.004 195.004C442.004 195.019 442.003 195.026 442.003 195.029C442.003 195.031 442.003 195.029 442.004 195.026C442.005 195.022 442.006 195.017 442.007 195.012C442.009 195.007 442.011 195.002 442.012 194.998C442.015 194.991 442.017 194.988 442.016 194.99C442.014 194.993 442.01 194.998 442.004 195.005C441.998 195.011 441.992 195.015 441.99 195.016C441.988 195.018 441.99 195.016 441.998 195.013C442.001 195.011 442.006 195.01 442.011 195.008C442.016 195.006 442.021 195.005 442.025 195.004C442.029 195.004 442.03 195.004 442.028 195.004C442.026 195.004 442.018 195.005 442.004 195.005L442.004 215.005L442.004 235.005C464.095 235.004 482.004 217.096 482.004 195.005L462.004 195.005ZM442.004 215.005V195.005C441.99 195.005 441.982 195.004 441.98 195.004C441.978 195.004 441.979 195.004 441.983 195.004C441.987 195.005 441.992 195.006 441.997 195.008C442.002 195.01 442.006 195.011 442.01 195.013C442.018 195.016 442.02 195.018 442.018 195.017C442.016 195.015 442.01 195.011 442.004 195.005C441.998 194.998 441.994 194.993 441.992 194.991C441.991 194.988 441.993 194.991 441.996 194.998C441.997 195.002 441.999 195.007 442.001 195.012C442.002 195.017 442.004 195.022 442.004 195.026C442.005 195.029 442.005 195.031 442.005 195.029C442.005 195.027 442.004 195.019 442.004 195.004L422.004 195.005L402.004 195.005C402.004 217.096 419.912 235.005 442.004 235.005V215.005ZM422.004 195.005H442.004C442.004 194.99 442.005 194.983 442.005 194.98C442.005 194.978 442.005 194.98 442.004 194.983C442.004 194.987 442.002 194.992 442.001 194.997C441.999 195.002 441.997 195.007 441.996 195.011C441.993 195.018 441.991 195.021 441.992 195.019C441.994 195.016 441.998 195.011 442.004 195.005C442.01 194.998 442.015 194.995 442.018 194.993C442.02 194.991 442.018 194.993 442.01 194.996C442.006 194.998 442.002 195 441.997 195.001C441.991 195.003 441.987 195.004 441.983 195.005C441.979 195.006 441.978 195.006 441.98 195.006C441.982 195.005 441.99 195.005 442.004 195.005V175.005V155.005C419.913 155.005 402.004 172.913 402.004 195.005H422.004Z" fill="#001906" mask="url(#path-3-outside-2_1_10)"/>
</svg>
